<svg xmlns="http://www.w3.org/2000/svg" viewBox="0 0 400 400" width="400" height="400"><defs>
<filter id="glow" x="-50%" y="-50%" width="200%" height="200%"><feGaussianBlur stdDeviation="8" result="b"/><feMerge><feMergeNode in="b"/><feMergeNode in="SourceGraphic"/></feMerge></filter>
<filter id="soft" x="-50%" y="-50%" width="200%" height="200%"><feGaussianBlur stdDeviation="3"/></filter>
<filter id="shadow" x="-20%" y="-20%" width="140%" height="150%"><feDropShadow dx="0" dy="6" stdDeviation="6" flood-color="#000" flood-opacity="0.35"/></filter>
<linearGradient id="skin" x1="0" y1="0" x2="1" y2="1"><stop offset="0" stop-color="#F3D2B8"/><stop offset="1" stop-color="#E9BFA0"/></linearGradient>
<linearGradient id="skinSide" x1="0" y1="0" x2="1" y2="0"><stop offset="0" stop-color="#E9BFA0"/><stop offset="1" stop-color="#CF9A78"/></linearGradient>
<linearGradient id="shirt" x1="0" y1="0" x2="0" y2="1"><stop offset="0" stop-color="#5F82A6"/><stop offset="1" stop-color="#355270"/></linearGradient>
<linearGradient id="hair" x1="0" y1="0" x2="1" y2="1"><stop offset="0" stop-color="#4A4060"/><stop offset="1" stop-color="#2C2538"/></linearGradient>
<linearGradient id="teal" x1="0" y1="0" x2="1" y2="1"><stop offset="0" stop-color="#40D6E6"/><stop offset="1" stop-color="#0D849E"/></linearGradient>
<linearGradient id="coral" x1="0" y1="0" x2="1" y2="1"><stop offset="0" stop-color="#FF7061"/><stop offset="1" stop-color="#C7333D"/></linearGradient>
<linearGradient id="screen" x1="0" y1="0" x2="0" y2="1"><stop offset="0" stop-color="#1B2B45"/><stop offset="1" stop-color="#0B1426"/></linearGradient>
<linearGradient id="pod" x1="0" y1="0" x2="1" y2="0"><stop offset="0" stop-color="#FFFFFF"/><stop offset="1" stop-color="#D5DCE4"/></linearGradient>
<radialGradient id="capTop" cx="0.4" cy="0.35" r="0.8"><stop offset="0" stop-color="#40D6E6"/><stop offset="1" stop-color="#0D849E"/></radialGradient>
</defs><rect x="14" y="22" width="184" height="284" rx="22" fill="#F6F8FB" opacity="0.06"/><rect x="14" y="22" width="184" height="284" rx="22" fill="none" stroke="#F6F8FB" stroke-opacity="0.08"/><rect x="22" y="262" width="168" height="34" rx="10" fill="url(#skin)" opacity="0.92"/><path d="M28 268 q84 -6 156 0" stroke="#CF9A78" stroke-width="1.4" fill="none" opacity="0.6"/><g transform="translate(106 268)" filter="url(#shadow)">
<ellipse cx="0" cy="0" rx="30" ry="10" fill="#0D849E"/>
<rect x="-30" y="-16" width="60" height="16" fill="#0D849E"/>
<ellipse cx="0" cy="-16" rx="30" ry="10" fill="url(#capTop)"/>
<ellipse cx="0" cy="-16" rx="9.6" ry="3.2" fill="#141A2B"/>
</g><g transform="translate(106 186) rotate(0) scale(1.5)" filter="url(#shadow)">
<rect x="-5.5" y="4" width="11" height="40" rx="5.5" fill="url(#pod)" stroke="#B9C3CE" stroke-width="1.2"/>
<ellipse cx="0" cy="0" rx="13" ry="12" fill="url(#pod)" stroke="#B9C3CE" stroke-width="1.2"/>
<ellipse cx="-4" cy="-3" rx="4" ry="3" fill="#FFFFFF" opacity="0.8"/>
<rect x="-3" y="39" width="6" height="3" rx="1.5" fill="#8A96A3"/>
</g><g transform="translate(116 168) rotate(-18) scale(1.35)"><ellipse cx="0" cy="8" rx="17" ry="19" fill="url(#skin)"/><rect x="-14.5" y="-20" width="7.5" height="30" rx="3.7" fill="url(#skin)"/><rect x="-5.5" y="-24" width="7.5" height="34" rx="3.7" fill="url(#skin)"/><rect x="3.5" y="-16" width="7" height="28" rx="3.5" fill="#E9BFA0" opacity="0.9"/><rect x="11.5" y="-8" width="6.5" height="22" rx="3.2" fill="#E9BFA0" opacity="0.85"/><path d="M-20 10 q-12 -6 -8 -18 q4 -6 10 -2" stroke="#CF9A78" stroke-width="7" fill="none" stroke-linecap="round"/></g><circle cx="106" cy="252" r="7" fill="none" stroke="#FF7061" stroke-width="2.2"/><circle cx="106" cy="252" r="12" fill="#FF7061" opacity="0.18" filter="url(#soft)"/><path d="M94.5 248 L60 230" stroke="#FF7061" stroke-width="1.6"/><text x="57" y="227" fill="#FF7061" font-family="-apple-system, Inter, Helvetica, Arial, sans-serif" font-size="10.5" font-weight="600" text-anchor="end">microphone</text><text x="106" y="326" fill="#F6F8FB" font-family="-apple-system, Inter, Helvetica, Arial, sans-serif" font-size="13" font-weight="600" text-anchor="middle">A · stem tip into the bell</text><text x="106" y="344" fill="#F6F8FB" font-family="-apple-system, Inter, Helvetica, Arial, sans-serif" font-size="10" font-weight="500" text-anchor="middle">the bell (cap) rests on the skin</text><text x="106" y="358" fill="#B9C3CE" font-family="-apple-system, Inter, Helvetica, Arial, sans-serif" font-size="10" font-weight="500" text-anchor="middle">fingers cover the bud</text><text x="106" y="372" fill="#B9C3CE" font-family="-apple-system, Inter, Helvetica, Arial, sans-serif" font-size="10" font-weight="500" text-anchor="middle">hold it, do not press hard</text><rect x="202" y="22" width="184" height="284" rx="22" fill="#F6F8FB" opacity="0.06"/><rect x="202" y="22" width="184" height="284" rx="22" fill="none" stroke="#F6F8FB" stroke-opacity="0.08"/><rect x="210" y="262" width="168" height="34" rx="10" fill="url(#skin)" opacity="0.92"/><path d="M216 268 q84 -6 156 0" stroke="#CF9A78" stroke-width="1.4" fill="none" opacity="0.6"/><g transform="translate(294 196) rotate(0) scale(1.5)" filter="url(#shadow)">
<rect x="-5.5" y="4" width="11" height="40" rx="5.5" fill="url(#pod)" stroke="#B9C3CE" stroke-width="1.2"/>
<ellipse cx="0" cy="0" rx="13" ry="12" fill="url(#pod)" stroke="#B9C3CE" stroke-width="1.2"/>
<ellipse cx="-4" cy="-3" rx="4" ry="3" fill="#FFFFFF" opacity="0.8"/>
<rect x="-3" y="39" width="6" height="3" rx="1.5" fill="#8A96A3"/>
</g><path d="M248 262 q-6 -78 46 -98 q52 20 46 98" fill="url(#skin)" opacity="0.55" stroke="#CF9A78" stroke-width="2"/><path d="M254 262 q2 -58 40 -76" stroke="#CF9A78" stroke-width="1.2" fill="none" opacity="0.7"/><circle cx="294" cy="262" r="7" fill="none" stroke="#FF7061" stroke-width="2.2"/><circle cx="294" cy="262" r="12" fill="#FF7061" opacity="0.18" filter="url(#soft)"/><path d="M305.5 258 L340 240" stroke="#FF7061" stroke-width="1.6"/><text x="343" y="237" fill="#FF7061" font-family="-apple-system, Inter, Helvetica, Arial, sans-serif" font-size="10.5" font-weight="600" text-anchor="start">microphone</text><text x="294" y="326" fill="#F6F8FB" font-family="-apple-system, Inter, Helvetica, Arial, sans-serif" font-size="13" font-weight="600" text-anchor="middle">B · stem tip on the skin</text><text x="294" y="344" fill="#F6F8FB" font-family="-apple-system, Inter, Helvetica, Arial, sans-serif" font-size="10" font-weight="500" text-anchor="middle">palm shields room noise</text><text x="294" y="358" fill="#B9C3CE" font-family="-apple-system, Inter, Helvetica, Arial, sans-serif" font-size="10" font-weight="500" text-anchor="middle">edge of the palm on the chest</text><text x="294" y="372" fill="#B9C3CE" font-family="-apple-system, Inter, Helvetica, Arial, sans-serif" font-size="10" font-weight="500" text-anchor="middle">10 s without moving</text><text x="200" y="394" fill="#7DEDC7" font-family="-apple-system, Inter, Helvetica, Arial, sans-serif" font-size="11.5" font-weight="600" text-anchor="middle">The hand rests on the chest – they move together, no rustling</text></svg>